<?xml version="1.0" encoding="UTF-8"?><svg id="Layer_1" xmlns="http://www.w3.org/2000/svg" viewBox="0 0 79.99 101.05"><g id="rSt6wZ.tif"><g><path d="M0,79.72V5.93c.54-.2,1.06-.54,1.61-.58,1.19-.09,2.39-.03,3.69-.03,0-1.35,0-2.52,0-3.68C5.31,.26,5.54,0,6.93,0c13.13,0,26.25,0,39.38,0,1.46,0,1.66,.22,1.68,1.74,0,1.15,0,2.31,0,3.58,1.33,0,2.49,0,3.64,0,1.49,0,1.66,.17,1.68,1.71,.02,1.11,0,2.22,0,3.28,.29,.1,.42,.18,.55,.18,.98,.02,1.96,.02,2.94,.04,1.49,.02,1.97,.68,1.79,2.1-.13,.98-.02,1.99-.02,3.12,.69,0,1.19,0,1.7,0,5.51,0,11.02,0,16.53,0,3.2,0,3.31,.11,3.15,3.3,0,.09,0,.19-.01,.28-.14,1.45-.56,1.86-2.04,1.92-1.05,.04-2.11,0-3.28,0,0,4.2,0,8.17,0,12.13,0,4.1,.45,3.71-3.78,3.71-1.44,0-1.65-.26-1.64-1.77,0-1.15,0-2.3,0-3.56-1.4,0-2.6-.04-3.81,.01-1.07,.04-1.55-.36-1.5-1.47,.06-1.15,.01-2.31,.01-3.51h-5.26v10.22h-5.41v-4.9h-5.29v10.56h-5.08c0,1.42-.04,2.63,.01,3.84,.04,.9-.28,1.24-1.2,1.23-2.94-.04-5.89-.05-8.83,0-.95,.01-1.21-.37-1.18-1.25,.05-1.29,.01-2.59,.01-4.07h-5.12v-10.26h-10.48v10.25h-5.47c0-1.15,.03-2.12,0-3.09-.07-1.78-.5-2.18-2.31-2.23-.33,0-.65,0-.98,0-1.67,.01-1.96,.28-1.96,1.94,0,6.03,0,12.06,0,18.09,0,.4,.05,.81,.09,1.32,1.05,0,1.98,.01,2.91,0,2.21-.03,2.52,.26,2.51,2.46,0,5.7,0,11.41-.04,17.11,0,1.19,.38,1.67,1.61,1.66,7.71-.03,15.42-.01,23.12-.02,1.37,0,1.61-.27,1.62-1.66,0-2.43-.02-4.86,0-7.29,0-1.38,.29-1.66,1.63-1.69,.75-.02,1.49,0,2.24,0,1.54,0,1.78-.25,1.78-1.78,0-2.34-.03-4.67-.02-7.01,0-1.58,.21-1.77,1.78-1.77,3.6,.02,3.62,0,3.54-3.57,0-.05,0-.09,0-.14-.12-1.07,.31-1.56,1.42-1.51,1.19,.06,2.39,.01,3.69,.01v-5.72h5.36v-10.56h5.37v10.54h4.99v5.88h-5.08v5.07c-1.42,0-2.68,.06-3.94-.02-1.07-.06-1.35,.37-1.34,1.39,.04,6.03,.02,12.05,.02,18.08,0,7.71-.03,15.41-.04,23.12h-5.33v-31.97c-1.4,0-2.56,.04-3.72-.01-1.13-.05-1.61,.4-1.58,1.56,.05,2.01,.01,4.01,.01,6.02,0,3.3,.2,2.87-2.81,2.9-.23,0-.47,0-.7,0-1.09,.06-1.75,.56-1.74,1.73,0,.79,.01,1.59,0,2.38-.03,1.28-.43,1.61-1.72,1.56-1.19-.04-2.39,0-3.72,0v15.84h-5.33v-5.34H15.9v-5.21h-5.16v-5.18H5.3v-5.6H0ZM26.75,26.26h26.48c0-1.04,0-2.06,0-3.07,0-1.63-.23-1.89-1.83-1.9-2.98,0-5.97,.02-8.95,.04-4.62,.03-9.23,.04-13.85,.09-1.67,.02-2.16,.56-2.1,2.23,.03,.83,.16,1.67,.26,2.62Zm32,21.55v5.35h4.92v-5.35h-4.92ZM10.63,26.33c0-1.44,.05-2.73-.04-4.02-.02-.32-.51-.84-.81-.86-1.38-.09-2.76-.04-4.2-.04v4.92h5.05Z"/><path d="M16.07,69.1h15.8v5.12h-15.8v-5.12Z"/><path d="M26.61,53.39v5.01h-10.55v-5.01h10.55Z"/></g></g></svg>